<svg width="16px" height="16px" viewBox="0 0 16 16" version="1.1" xmlns="http://www.w3.org/2000/svg" xmlns:xlink="http://www.w3.org/1999/xlink">
	<path d="M15.0784247,15.9571892 C15.5636139,15.9571892 15.9570656,15.5637375 15.9570656,15.0784247 L15.9570656,0.915027027 C15.9570656,0.42965251 15.5636757,0.0363243243 15.0784247,0.0363243243 L0.915027027,0.0363243243 C0.42965251,0.0363243243 0.0363243243,0.42965251 0.0363243243,0.915027027 L0.0363243243,15.0784247 C0.0363243243,15.5636757 0.429590734,15.9571892 0.915027027,15.9571892 L15.0784247,15.9571892 Z" id="Blue_1_" fill="#3C5A99"></path>
	<path d="M11.0214054,15.9571892 L11.0214054,9.7917529 L13.0908417,9.7917529 L13.4007104,7.38897297 L11.0214054,7.38897297 L11.0214054,5.85494981 C11.0214054,5.15928958 11.2145792,4.68522008 12.212139,4.68522008 L13.4844788,4.68466409 L13.4844788,2.53559846 C13.2644324,2.5063166 12.5091583,2.44089575 11.6304556,2.44089575 C9.79601544,2.44089575 8.54010811,3.56064865 8.54010811,5.61698842 L8.54010811,7.38897297 L6.46535907,7.38897297 L6.46535907,9.7917529 L8.54010811,9.7917529 L8.54010811,15.9571892 L11.0214054,15.9571892 Z" id="f" fill="#FFFFFF"></path>
</svg>