<svg xmlns="http://www.w3.org/2000/svg" viewBox="0 0 24 24" aria-hidden="true" focusable="false"><path d="M11 18c-.256 0-.512-.098-.707-.293L4.586 12l5.707-5.707c.391-.391 1.023-.391 1.414 0s.391 1.023 0 1.414L7.414 12l4.293 4.293c.391.391.391 1.023 0 1.414-.195.195-.451.293-.707.293z"></path><path d="M17 18c-.256 0-.512-.098-.707-.293L10.586 12l5.707-5.707c.391-.391 1.023-.391 1.414 0s.391 1.023 0 1.414L13.414 12l4.293 4.293c.391.391.391 1.023 0 1.414-.195.195-.451.293-.707.293z"></path></svg>
