<svg version="1.1" xmlns="http://www.w3.org/2000/svg" xmlns:xlink="http://www.w3.org/1999/xlink" x="0px" y="0px"
	 viewBox="0 0 32 32" enable-background="new 0 0 32 32" xml:space="preserve">
	<circle fill="#222222" cx="16" cy="16" r="16"/>
	<polyline fill="none" stroke="#FFFFFF" stroke-width="2" stroke-linecap="round" stroke-linejoin="round" stroke-miterlimit="10" points="
	10,17 10,23 22,23 22,17 	"/>
	<line fill="none" stroke="#FFFFFF" stroke-width="2" stroke-linecap="round" stroke-linejoin="round" stroke-miterlimit="10" x1="10" y1="19" x2="22" y2="19"/>
	<polyline fill="none" stroke="#FFFFFF" stroke-width="2" stroke-linecap="round" stroke-linejoin="round" stroke-miterlimit="10" points="
	8,12 11,7 21,7 24,12 	"/>
	<path fill="#FFFFFF" d="M10,15c1.7,0,3-1.3,3-3H7C7,13.7,8.3,15,10,15z"/>
	<path fill="#FFFFFF" d="M22,15c1.7,0,3-1.3,3-3h-6C19,13.7,20.3,15,22,15z"/>
	<path fill="#FFFFFF" d="M16,15c1.7,0,3-1.3,3-3h-6C13,13.7,14.3,15,16,15z"/>
</svg>
